<?xml version="1.0" encoding="UTF-8"?>
<!DOCTYPE svg  PUBLIC '-//W3C//DTD SVG 1.1//EN'  'http://www.w3.org/Graphics/SVG/1.1/DTD/svg11.dtd'>
<svg enable-background="new 0 0 435 584" version="1.1" viewBox="0 0 435 584" xml:space="preserve" xmlns="http://www.w3.org/2000/svg">
<path d="m176.5 532.7l2.5-7.1 49-141.4-14.2-4.9-60.4 174.2c-0.6 1.9-1.9 3.1-3.7 3.9-1.8 0.7-3.6 0.8-5.3 0.2-1.8-0.6-3.1-1.8-4.1-3.5-0.9-1.7-1.1-3.4-0.5-5.2l11.4-32.7-19.3 9.4-6.4 18.3c-1.9 5.6-1.6 11 1.1 16.4s6.9 9.1 12.6 11c5.8 2 11.5 1.7 17-0.8 5.5-2.6 9.2-6.6 11.2-12.1l9.1-25.7z"/>
<path d="m284.3 235.4c1.9-6.4-1.6-13.1-7.9-15.3s-13.2 1-15.6 7.2c-106.9-31.2-216 11.5-254 99l2.7 0.9c13.6-14.9 37.7-20.6 60.9-12.6s38.7 27.3 40.2 47.4l1.1 0.4c13.1-16.8 38.6-23.7 63.1-15.2 24.5 8.4 40.4 29.5 40.4 50.8 13.1-16.8 38.6-23.7 63.1-15.2 24.5 8.4 40.4 29.5 40.4 50.8l1.1 0.4c13.6-14.9 37.7-20.6 60.9-12.6s38.7 27.3 40.3 47.4l2.7 0.9c23.8-92.3-35.9-193-139.4-234.3z" fill="#E94E1B"/>
<path d="m400.4 259.3c0.8 12.4-2 17.2-4 19.6-5.5 6.5-15.9 6.6-22.4 1.1s-10.1-15.8-0.5-27c9.5-11.2 35-13.6 35-13.6s-8.9 7.6-8.1 19.9z" fill="#009FE3"/>
<path d="m285.4 69.2c0.8 12.4-2 17.2-4 19.6-5.5 6.5-15.9 6.6-22.4 1.1s-10.1-15.8-0.5-27c9.5-11.2 35-13.6 35-13.6s-8.9 7.6-8.1 19.9z" fill="#009FE3"/>
<path d="m390.3 30.5c0.8 12.4-2 17.2-4 19.6-5.5 6.5-15.9 6.6-22.4 1.1s-10.1-15.8-0.5-27c9.5-11.2 35-13.6 35-13.6s-8.9 7.5-8.1 19.9z" fill="#009FE3"/>
<path d="m285.4 167c0.8 12.4-2 17.2-4 19.6-5.5 6.5-15.9 6.6-22.4 1.1s-10.1-15.8-0.5-27c9.5-11.2 35-13.6 35-13.6s-8.9 7.5-8.1 19.9z" fill="#009FE3"/>
<path d="m369.8 144.7c0.8 12.4-2 17.2-4 19.6-5.5 6.5-15.9 6.6-22.4 1.1s-10.1-15.8-0.5-27c9.5-11.2 35-13.6 35-13.6s-8.9 7.6-8.1 19.9z" fill="#009FE3"/>
<path d="m168.2 184.5c0.8 12.4-2 17.2-4 19.6-5.5 6.5-15.9 6.6-22.4 1.1s-10.1-15.8-0.5-27c9.5-11.2 35-13.6 35-13.6s-8.9 7.5-8.1 19.9z" fill="#009FE3"/>
</svg>
